<svg xmlns="http://www.w3.org/2000/svg">
    <symbol id="icon_galery"  viewBox="0 0 1000 1000">
<path d="M500,10C229.4,10,10,229.4,10,500c0,270.6,219.4,490,490,490c270.6,0,490-219.4,490-490C990,229.4,770.6,10,500,10z M500,952.3C250.2,952.3,47.7,749.8,47.7,500C47.7,250.2,250.2,47.7,500,47.7c249.8,0,452.3,202.5,452.3,452.3C952.3,749.8,749.8,952.3,500,952.3z"/><path d="M766.2,680.4c-11.9-17.2-13.8-35.2-13.8-54.6c0-42.8-0.6-85.6,0.3-128.4c0.5-27.1-5.3-55.7,16.5-78.7c3.4-3.6,2.7-11.1,3.2-13.1c0.7-41.3-36.2-65.6-69.4-47.8c-14,7.5-27.7,9.9-42.8,9.9c-77.3-0.1-154.7,1.2-232-0.3c-49.2-1-99.4,9-147.2-14.5c-16-7.9-32.3,3.7-43.5,17.4c-12.4,15-15,34.1-5.5,49.5c14.3,23.2,14.4,47.3,14.2,72.6c-0.4,43.6-0.2,87.3,0.1,130.9c0.1,20.3-1.9,39-13.2,57.6c-12.8,20.9-6.5,42.7,10.8,59.4c17.1,16.4,37.1,19.3,56.6,4.5c12.9-9.8,26.6-12.2,42-12.1c104,0.2,208,0.1,312-0.1c16.2,0,30.5,2.5,44.5,12.3c20.2,14.1,43.1,11.1,59.5-4.7C774.5,724.7,779.6,699.8,766.2,680.4z M709.8,661.1c-0.2,32.4-4.2,36-36.3,36.1c-58.3,0.2-116.5,0.1-174.8,0.1v-0.4c-59.9,0-119.9-0.3-179.8,0.2c-20.4,0.2-28.2-9.1-28-29.1c0.8-77.2,0.7-154.4,1.3-231.6c0.2-31.8,3-34.1,34.5-34.1c116.4,0,232.8-0.1,349.3,0.1c31.4,0.1,34,2.7,34.1,34.7C710.3,511.7,710.3,586.4,709.8,661.1z"/><path d="M358.8,343.5c10.8,10.1,19.6-0.7,26.7-7.6c27.5-26.5,55.7-52.5,81-81.1c22.8-25.7,41-26.8,64.4-0.8c26.4,29.3,55.6,56.1,84.1,83.5c6.4,6.2,14.2,13.1,24.4,7.7c2.8-1.5,4.1-6.1,6.8-10.4c-3.2-5.7-5.4-12.3-9.8-16.8c-39.5-40.6-79.3-80.9-119.4-120.9c-12-12-24.3-7.6-34.8,2.6c-39.5,38.7-78.9,77.6-117.9,116.8C357.1,323.8,348,333.5,358.8,343.5z"/><path d="M683.6,454.3c0.2-19.2-7.3-26.4-26.9-25.9c-51.5,1.1-103.1,0.4-154.7,0.4c-53.3,0-106.5,0-159.8,0c-12.2,0-24,0.5-23.9,17.8c0.2,36.1,0,72.1,0.3,108.2c0,3.9,1,9.5,3.5,11.2c5.2,3.4,8.9-2.1,12.3-5.4c19-18.8,38.1-37.5,56.7-56.7c11.1-11.4,20.5-11.9,31.1,0.9c17.4,21.3,35.5,42.1,53.4,63c5.3,6.1,11.4,16.1,20.2,9.8c21.5-15.5,33.9-0.9,46.7,12.4c11.4,11.9,20.6,13.2,33-0.1c39.3-42,39.8-41.6,87.7-5.4c4.5,3.4,8.1,10.4,14.5,8.2c8-2.8,5.8-11.2,5.8-17.5C683.7,534.9,683.2,494.6,683.6,454.3z M555,520.4c-19.4,0.6-33.6-13.4-33-32.5c0.6-20.2,13.6-29.8,31.6-32c16.5-2,33.2,15.9,33.2,35.9C584.3,508,574.7,519.9,555,520.4z"/>
    </symbol>
</svg>