<svg xmlns="http://www.w3.org/2000/svg">
    <symbol id="icon_gallery"  viewBox="0 0 671.24 452.83">
        <path d="M364.84 233.82c-39.58 0-71.67 32.68-71.67 73s32.09 73 71.67 73 71.66-32.68 71.66-73-32.08-73-71.66-73zm-.69 113.76c-22.79 0-41.25-18.82-41.25-42s18.46-42 41.25-42 41.25 18.82 41.25 42-18.47 42-41.25 42z"/><path d="M585.16 161.77H572v-.23a14.75 14.75 0 00-14.75-14.75h-33.44a14.74 14.74 0 00-14.74 14.75v.23H258a36.43 36.43 0 00-36.42 36.42V414A36.42 36.42 0 00258 450.42h327.16A36.42 36.42 0 00621.58 414V198.19a36.43 36.43 0 00-36.42-36.42zM364.84 405.51c-53.52 0-96.91-44.19-96.91-98.7s43.39-98.7 96.91-98.7 96.9 44.19 96.9 98.7-43.38 98.7-96.9 98.7zM573 237.78a4.93 4.93 0 01-4.94 4.93h-54.34a4.92 4.92 0 01-4.93-4.93v-22.42a4.93 4.93 0 014.93-4.93H568a4.94 4.94 0 014.94 4.93z"/><path d="M658.69 72.58L436.42 3.34a13.39 13.39 0 00-16.76 8.8l-37.72 121.07H415l29.77-95.61 190.38 59.31-13.29 42 .36.19c10.54 5.74 18 14.56 21.07 24.84l.47 1.57 23.72-76.15a13.4 13.4 0 00-8.79-16.78zM253 132.84l.09.37h32.61l-13.32-50.82L380.31 54.1l10.6-34-143.77 37.65a13.41 13.41 0 00-9.55 16.34zM180.87 296.76l-40.42-43.45-33-35.47a6.76 6.76 0 00-11.71 4.6v32.79H13.28a9.62 9.62 0 00-9.62 9.62v73a9.62 9.62 0 009.62 9.62h82.46v32.79a6.76 6.76 0 0011.71 4.61l33-35.47 40.42-43.4a6.75 6.75 0 000-9.24z"/>
    </symbol>
    <symbol id="home" viewBox="0 0 523 442">
        <g><g><polygon points="264,118 87.9,253.5 87.9,435 229.4,435 229.4,302 304.6,302 304.6,435 440.1,435 440.1,253.5"/></g></g><g><g><polygon points="447.5,148.1 447.5,55.3 373.3,55.3 373.3,91.1 264,7 8,203.9 43.3,249.9 264,80.1 484.7,249.9 520,203.9"/></g></g>
    </symbol>
</svg>